<?xml version="1.0" encoding="utf-8"?>
<!-- Generator: Adobe Illustrator 16.0.0, SVG Export Plug-In . SVG Version: 6.00 Build 0)  -->
<!DOCTYPE svg PUBLIC "-//W3C//DTD SVG 1.1//EN" "http://www.w3.org/Graphics/SVG/1.1/DTD/svg11.dtd">
<svg version="1.1" id="Capa_1" xmlns="http://www.w3.org/2000/svg" xmlns:xlink="http://www.w3.org/1999/xlink" x="0px" y="0px"
	 width="35.167px" height="35.167px" viewBox="0 0 35.167 35.167" enable-background="new 0 0 35.167 35.167" xml:space="preserve">
<path fill="#B3B3B3" d="M28.722,11.708c-0.708,0.319-1.49,0.513-2.254,0.642c0.362-0.06,0.895-0.715,1.107-0.982
	c0.326-0.404,0.595-0.865,0.748-1.362c0.019-0.041,0.034-0.09-0.006-0.117c-0.049-0.022-0.079-0.011-0.118,0.008
	c-0.853,0.458-1.734,0.789-2.672,1.023c-0.077,0.019-0.135,0-0.184-0.049c-0.078-0.087-0.15-0.169-0.233-0.238
	c-0.395-0.335-0.817-0.6-1.295-0.794c-0.625-0.256-1.31-0.363-1.984-0.319c-0.657,0.041-1.301,0.227-1.882,0.532
	c-0.584,0.303-1.105,0.729-1.521,1.239c-0.429,0.529-0.745,1.154-0.906,1.817c-0.158,0.641-0.145,1.271-0.049,1.918
	c0.014,0.106,0.006,0.123-0.093,0.106c-3.667-0.546-6.71-1.858-9.179-4.672c-0.106-0.123-0.164-0.123-0.253,0.011
	c-1.08,1.618-0.555,4.221,0.793,5.498c0.18,0.172,0.365,0.341,0.564,0.497c-0.072,0.017-0.972-0.082-1.771-0.497
	c-0.106-0.068-0.161-0.027-0.171,0.093c-0.01,0.175,0.004,0.336,0.029,0.527c0.207,1.64,1.345,3.161,2.9,3.753
	c0.186,0.076,0.39,0.145,0.589,0.18c-0.354,0.077-0.72,0.131-1.738,0.052c-0.125-0.025-0.174,0.041-0.125,0.161
	c0.764,2.085,2.415,2.704,3.649,3.056c0.165,0.03,0.332,0.03,0.498,0.068c-0.011,0.017-0.021,0.017-0.03,0.03
	c-0.409,0.625-1.831,1.089-2.494,1.321c-1.203,0.42-2.513,0.611-3.784,0.486c-0.205-0.03-0.246-0.03-0.302,0
	c-0.056,0.033-0.007,0.082,0.059,0.134c0.258,0.172,0.521,0.322,0.789,0.469c0.808,0.428,1.649,0.77,2.529,1.013
	c4.549,1.255,9.67,0.333,13.087-3.062c2.681-2.663,3.621-6.337,3.621-10.019c0-0.142,0.169-0.221,0.27-0.297
	c0.699-0.524,1.261-1.151,1.782-1.853c0.117-0.158,0.117-0.297,0.117-0.355c0-0.011,0-0.019,0-0.019
	C28.812,11.648,28.812,11.667,28.722,11.708z"/>
</svg>
