<?xml version="1.0" encoding="utf-8"?>
<!-- Generator: Adobe Illustrator 16.0.0, SVG Export Plug-In . SVG Version: 6.00 Build 0)  -->
<!DOCTYPE svg PUBLIC "-//W3C//DTD SVG 1.1//EN" "http://www.w3.org/Graphics/SVG/1.1/DTD/svg11.dtd">
<svg version="1.1" id="Capa_1" xmlns="http://www.w3.org/2000/svg" xmlns:xlink="http://www.w3.org/1999/xlink" x="0px" y="0px"
	 width="35.167px" height="35.167px" viewBox="0 0 35.167 35.167" enable-background="new 0 0 35.167 35.167" xml:space="preserve">
<path fill-rule="evenodd" clip-rule="evenodd" fill="#B3B3B3" d="M18.188,10.663c2.83,0,5.662-0.005,8.494,0.002
	c1.585,0.004,2.212,0.638,2.214,2.25c0.008,3.876,0.01,7.751-0.001,11.626c-0.004,1.576-0.658,2.214-2.264,2.216
	c-5.625,0.006-11.251,0.006-16.879,0c-1.691-0.002-2.311-0.607-2.313-2.266c-0.007-3.875-0.008-7.75,0.001-11.625
	c0.003-1.596,0.622-2.198,2.251-2.202C12.523,10.657,15.355,10.663,18.188,10.663z M11.086,15.243c0,3.686,0,7.099,0,10.523
	c4.773,0,9.475,0,14.16,0c0-3.497,0-6.9,0-10.525c-2.067,1.702-4.032,3.224-5.879,4.876c-0.904,0.808-1.49,0.832-2.404,0.008
	C15.121,18.465,13.154,16.946,11.086,15.243z M26.216,25.788c1.547,0.111,1.783-0.08,1.785-1.396
	c0.008-3.685,0.027-7.375-0.021-11.061c-0.008-0.565-0.177-1.409-0.556-1.625c-0.652-0.373-1.458-0.238-2.149,0.354
	c-2.009,1.719-4.104,3.338-6.094,5.079c-0.784,0.685-1.281,0.655-2.052-0.017c-2.021-1.761-4.086-3.479-6.226-5.091
	c-0.497-0.375-1.382-0.404-2.048-0.305c-0.24,0.036-0.496,0.915-0.502,1.408c-0.041,3.763-0.028,7.524-0.02,11.287
	c0.003,1.352,0.334,1.59,1.785,1.26c0-3.326-0.014-6.673,0.012-10.021c0.006-0.601,0.175-1.198,0.269-1.797
	c0.52,0.313,1.083,0.575,1.554,0.953c2.082,1.672,4.135,3.38,6.215,5.086c2.191-1.802,4.279-3.538,6.397-5.242
	c0.405-0.329,0.917-0.528,1.38-0.786c0.091,0.527,0.255,1.055,0.259,1.583C26.227,18.878,26.216,22.298,26.216,25.788z
	 M11.896,11.615c2.214,1.826,4.229,3.483,6.27,5.164c2.082-1.716,4.072-3.357,6.263-5.164C20.154,11.615,16.17,11.615,11.896,11.615
	z"/>
</svg>
